# xmcd
#
# Track frame offsets:
#	150
#	15788
#	29786
#	45071
#	59508
#	72419
#	86528
#	100047
#	114513
#	128395
#	142245
#	156946
#	172837
#	187281
#	201175
#	216302
#
# Disc length: 3073 seconds
#
# Revision: 1
# Processed by: cddbd v1.5.1PL2 Copyright (c) Steve Scherf et al.
# Submitted via: audiograbber 1.83.01
#
DISCID=dd0bff10
DTITLE=Bessie Smith - Great Divas
DYEAR=1900
DGENRE=Blues
TTITLE0=Careless Love
TTITLE1=J.C. Holmes Blues
TTITLE2=I Ain't Gonna Play Second Fiddle
TTITLE3=He's Gone Blues
TTITLE4=Nobody's Blues But Mine
TTITLE5=Woman's Trouble Blues
TTITLE6=Dying Gambler's Blues
TTITLE7=The St. Louis Blues
TTITLE8=Reckless Blues
TTITLE9=Sobbin' Hearted Blues
TTITLE10=Cold in Hand Blues
TTITLE11=You've Been a Good Old Wagon
TTITLE12=Cake Walkin' Babies
TTITLE13=The Yellow Dog Blues
TTITLE14=Soft Pedal Blues
TTITLE15=Dixie Flyer Blues
EXTD=
EXTT0=
EXTT1=
EXTT2=
EXTT3=
EXTT4=
EXTT5=
EXTT6=
EXTT7=
EXTT8=
EXTT9=
EXTT10=
EXTT11=
EXTT12=
EXTT13=
EXTT14=
EXTT15=
PLAYORDER=
